{"title":"The Nutcracker 2010 DVDrip Dutch Klam","uid":6866207,"size":1786293819,"categoryP":"video","categoryS":"movies","magnet":"?xt=urn:btih:f1ffc5ddfe330308226106fdbabbc054dbf755c1&amp;dn=The+Nutcracker+2010+DVDrip+Dutch+Klam&amp;tr=udp%3A%2F%2Ftracker.openbittorrent.com%3A80&amp;tr=udp%3A%2F%2Fopen.demonii.com%3A1337&amp;tr=udp%3A%2F%2Ftracker.coppersurfer.tk%3A6969&amp;tr=udp%3A%2F%2Fexodus.desync.com%3A6969","seeders":2,"leechers":1,"uploader":"Klambake","files":-1,"time":1323111719,"description":"Met Nederlandse stemmen,\nHet meisje Mary (Elle Fanning) krijgt van haar oom (Nathan Lane) een op het oog niet zo bijzonder kerstcadeau: een notenkrakerpop. Maar als ze 's nachts wakker wordt blijkt dat de pop tot leven is gekomen en hij trekt Mary mee in een sprookjesachtig avontuur.\n\nDutch spoken,\nSet in 1920's Vienna, this a tale of a little girl, whose godfather gives her a special doll one Christmas Eve. \n\n------------------------ Dutch Friends ------------------------\n---------------------------------------------------------------\n- Bezoek ook eens mijn vrienden op: &lt;a href=&quot; http://www.Film-Test.nl&quot; rel=&quot;nofollow&quot; target=&quot;_NEW&quot;&gt; http://www.Film-Test.nl&lt;/a&gt; --\n----- voor mijn Nederlandse Sync. ondertitels ---- en meer ----\n------- http://www.Film-Test.nl ---- voor Films en meer -------\n---------------------------------------------------------------\n\nGeneral:\n\nComplete name                    : The Nutcracker\\The Nutcracker.avi\nFormat                           : AVI\nFormat/Info                      : Audio Video Interleave\nFile size                        : 1.66 GiB\nDuration                         : 1h 43mn\nOverall bit rate                 : 2 299 Kbps\n\nVideo:\n\nFormat                           : MPEG-4 Visual\nFormat profile                   : Simple@L3\nFormat settings, BVOP            : No\nFormat settings, QPel            : No\nFormat settings, GMC             : No warppoints\nFormat settings, Matrix          : Default (H.263)\nCodec ID                         : XVID\nCodec ID/Hint                    : XviD\nDuration                         : 1h 43mn\nBit rate                         : 1 904 Kbps\nWidth                            : 720 pixels\nHeight                           : 304 pixels\nDisplay aspect ratio             : 2.35:1\nFrame rate                       : 25.000 fps\nColor space                      : YUV\nChroma subsampling               : 4:2:0\nBit depth                        : 8 bits\nScan type                        : Progressive\nCompression mode                 : Lossy\nBits/(Pixel*Frame)               : 0.348\nStream size                      : 1.38 GiB (83%)\nWriting library                  : XviD 1.1.2 (UTC 2006-11-01)\n\nAudio:\n\nFormat                           : AC-3\nFormat/Info                      : Audio Coding 3\nMode extension                   : CM (complete main)\nCodec ID                         : 2000\nDuration                         : 1h 43mn\nBit rate mode                    : Constant\nBit rate                         : 384 Kbps\nChannel(s)                       : 6 channels\nChannel positions                : Front: L C R, Side: L R, LFE\nSampling rate                    : 48.0 KHz\nBit depth                        : 16 bits\nCompression mode                 : Lossy\nStream size                      : 284 MiB (17%)\nAlignment                        : Aligned on interleaves\nInterleave, duration             : 32 ms (0.80 video frame)\nInterleave, preload duration     : 256 ms\n\n","torrent":{"xt":"urn:btih:f1ffc5ddfe330308226106fdbabbc054dbf755c1","amp;dn":"The+Nutcracker+2010+DVDrip+Dutch+Klam","amp;tr":["udp%3A%2F%2Ftracker.openbittorrent.com%3A80","udp%3A%2F%2Fopen.demonii.com%3A1337","udp%3A%2F%2Ftracker.coppersurfer.tk%3A6969","udp%3A%2F%2Fexodus.desync.com%3A6969"],"infoHash":"f1ffc5ddfe330308226106fdbabbc054dbf755c1","infoHashBuffer":{"type":"Buffer","data":[241,255,197,221,254,51,3,8,34,97,6,253,186,187,192,84,219,247,85,193]},"announce":[],"urlList":[]}}